<?xml version="1.0" encoding="utf-8"?>
<!-- Generator: Adobe Illustrator 15.1.0, SVG Export Plug-In . SVG Version: 6.00 Build 0)  -->
<!DOCTYPE svg PUBLIC "-//W3C//DTD SVG 1.1//EN" "http://www.w3.org/Graphics/SVG/1.1/DTD/svg11.dtd">
<svg version="1.1" xmlns="http://www.w3.org/2000/svg" xmlns:xlink="http://www.w3.org/1999/xlink" x="0px" y="0px"
	 width="195.591px" height="206.929px" viewBox="0 0 195.591 206.929" enable-background="new 0 0 195.591 206.929"
	 xml:space="preserve">
<g id="Layer_1" display="none">
	
		<image display="inline" overflow="visible" opacity="0.48" width="1600" height="1200" xlink:href="../../../../Desktop/n_a_river_otter-_buttonwood_zoo_may07_iii-52073.jpg"  transform="matrix(0.2288 0.0157 -0.0157 0.2288 -127.3647 -47.5229)">
	</image>
</g>
<g id="Layer_2">
	<path fill="#82C98F" d="M97.793,3.525c-52.446,0-94.958,44.745-94.958,99.939c0,55.195,42.512,99.939,94.958,99.939
		c52.441,0,94.963-44.744,94.963-99.939C192.756,48.27,150.234,3.525,97.793,3.525z"/>
	<path d="M97.793,1.417c-53.552,0-96.961,45.688-96.961,102.047c0,56.359,43.409,102.047,96.961,102.047
		c53.548,0,96.966-45.688,96.966-102.047C194.759,47.106,151.341,1.417,97.793,1.417z M97.793,201.309
		c-46.253,0-83.741-43.806-83.741-97.844c0-54.039,37.488-97.845,83.741-97.845c46.25,0,83.746,43.806,83.746,97.845
		C181.539,157.503,144.043,201.309,97.793,201.309z"/>
	<polygon fill="#FFFFFF" points="126.034,145.09 91.409,140.59 85.535,125.549 84.627,72.547 84.627,60.549 107.534,52.84 
		126.034,62.55 	"/>
	<polygon fill="#FFFFFF" points="88.901,21.215 84.202,22.875 81.901,30.965 83.149,38.715 88.901,43.215 99.151,44.965 
		111.026,40.34 111.651,25.215 109.026,21.215 105.651,19.215 96.151,19.215 	"/>
	<path d="M135.584,135.312c-0.355-0.492-0.748-0.952-1.162-1.393c-2.587-3.248-4.219-7.301-4.412-11.75l-0.408-18.013
		c5.101-3.432,7.693-11.823,5.927-20.851c-1.075-5.497-3.563-10.153-6.7-13.247l-0.064-2.825h-0.01
		c-0.01-0.299-0.018-0.598-0.036-0.899c-0.42-6.803-2.874-10.712-6.646-14.621h-0.006c-0.014-0.014-0.02-0.028-0.034-0.042
		c0.218-2.487,0.225-5.09-0.016-7.764c-0.689-7.632-3.222-14.371-6.766-19.117c-0.008-0.013-0.017-0.025-0.022-0.038
		c0.676-0.66,1.07-1.597,0.979-2.61c-0.163-1.789-1.742-3.108-3.528-2.947c-0.782,0.07-1.461,0.421-1.979,0.931
		c-3.685-2.442-8.666-3.728-14.018-3.245c-6.276,0.565-11.609,3.429-14.719,7.36c-0.229-0.029-0.466-0.039-0.707-0.017
		c-1.788,0.16-3.107,1.74-2.947,3.529c0.074,0.811,0.448,1.515,0.991,2.039c-0.22,1.085-0.306,2.197-0.204,3.327
		c0.418,4.627,3.605,8.486,8.225,10.754c0.022,1.036,0.075,2.084,0.171,3.144c0.183,2.014,0.499,3.959,0.922,5.828
		c-3.557,4.394-5.923,8.466-5.686,15.431h-0.004l0.143,17.353l2.167,1.5l-0.423-15.26c-0.236-10.422,8.088-16.062,18.51-16.299
		c10.423-0.237,18.994,5.021,19.23,15.442c0.014,0.589,0.06,4.169,0.02,4.746c0.03,0.013,0.06,0.022,0.089,0.035l0.005,0.218
		l0.108,4.757l0.213,9.38c0.048,2.196-1.572,4.021-3.698,4.314l-0.188-3.579l-0.036,0.48l-0.676-12.865l-23.511,8.215l-7.811-1.623
		l-14.502-9.23l0.977,18.631c-2.337,1.379-3.882,3.945-3.815,6.852c0.069,3.069,1.918,5.673,4.534,6.87l0.372,7.093l9.496,6.044
		l0.111,4.92v0.002c0.188,8.238,3.473,15.537,8.496,20.405L80.5,146.564c-0.976-0.009-1.829,0.501-2.315,1.268l-1.308-0.013
		c-1.502-0.014-2.73,1.19-2.744,2.691c-0.008,0.668,0.238,1.274,0.635,1.754c0,0.02-0.006,0.039-0.008,0.059
		c-0.013,1.501,1.193,2.729,2.691,2.744l0.709,0.006c0.001,0.004,0,0.01,0,0.016c0.238,1.481,1.632,2.49,3.114,2.252l11.892-1.911
		l3.394-0.177l0.62,2.911l-2.052,0.31c-0.072,0.006-0.142,0-0.215,0.009l-13.902,2.006c-1.125,0.162-2.019,0.901-2.443,1.872
		l-1.51,0.218c-1.733,0.251-2.935,1.858-2.686,3.59c0.111,0.771,0.502,1.426,1.043,1.906c0.004,0.023,0,0.047,0.003,0.07
		c0.25,1.732,1.857,2.935,3.589,2.685l0.817-0.118c0.003,0.006,0.002,0.012,0.004,0.018c0.537,1.664,2.323,2.581,3.988,2.043
		l13.368-4.312l12.229-2.539c1.64-0.246,2.95-1.308,3.599-2.708c0.235-0.425,0.413-0.886,0.527-1.371l2.94-6.838
		c0.046,0.03,0.089,0.066,0.136,0.097c0.656,1.466,1.621,2.757,2.801,3.81c-4.061,9.726-16.374,16.759-30.905,16.683
		c-17.786-0.091-32.151-10.799-32.086-23.911c0.025-5.16-1.234-9.113,2.579-12.99l-0.181-0.141
		c-5.777,5.771-9.614,8.996-9.654,16.729c-0.1,19.382,21.134,35.207,47.428,35.342c26.291,0.136,47.687-15.471,47.785-34.853
		C144.422,148.15,141.149,141.092,135.584,135.312z M104.237,19.852c1.543-0.14,2.905,0.998,3.044,2.542
		c0.109,1.211-0.573,2.302-1.619,2.787c0.094-0.248,0.142-0.513,0.116-0.795c-0.092-1.017-0.989-1.767-2.009-1.676
		c-0.828,0.075-1.451,0.692-1.614,1.466c-0.244-0.374-0.417-0.802-0.459-1.279C101.559,21.354,102.695,19.99,104.237,19.852z
		 M85.785,22.427c1.212-0.276,2.418,0.485,2.693,1.698c0.207,0.915-0.175,1.825-0.897,2.335c0.062-0.224,0.086-0.457,0.031-0.698
		c-0.18-0.795-0.973-1.294-1.767-1.112c-0.74,0.167-1.197,0.864-1.115,1.601c-0.312-0.295-0.542-0.681-0.642-1.129
		C83.811,23.909,84.573,22.703,85.785,22.427z M96.078,41.631c-6.681,0.602-12.388-2.125-12.745-6.092
		c-0.097-1.072,0.22-2.123,0.845-3.102l-0.02,0l0.158-0.204c0.124-0.178,0.259-0.354,0.402-0.526l2.511-3.27
		c0.242,1.801,2.861,3.021,5.928,2.731c3.106-0.295,5.487-2.027,5.312-3.871c-0.174-1.843-2.837-3.099-5.944-2.805
		c-1.063,0.101-2.032,0.38-2.853,0.764c0.159-0.226,0.322-0.445,0.499-0.649l0.095-0.121l0.014,0.002
		c1.077-1.198,2.477-1.985,4.064-2.129c1.583-0.143,3.102,0.381,4.375,1.367l0.006-0.002l0.048,0.042
		c0.289,0.229,0.568,0.478,0.83,0.753l5.774,5.232c0.244,0.194,0.468,0.398,0.672,0.611l0.104,0.093l-0.01,0.002
		c0.792,0.85,1.291,1.827,1.387,2.9C107.89,37.326,102.763,41.029,96.078,41.631z M106.227,141.808
		c-9.692,0-17.55-5.003-17.55-11.175v-6.394l0.441,0.269l7.626,1.655l23.516-8.215l-0.528-10.045c1.195-0.195,2.351-0.524,3.435-1
		l0.513,22.618c0.057,0.366,0.097,0.735,0.097,1.111C123.775,136.805,115.918,141.808,106.227,141.808z"/>
</g>
</svg>
